<?xml version="1.0" encoding="UTF-8"?>
<!DOCTYPE svg PUBLIC "-//W3C//DTD SVG 1.1//EN" "http://www.w3.org/Graphics/SVG/1.1/DTD/svg11.dtd">
<svg version="1.1" xmlns="http://www.w3.org/2000/svg" xmlns:xlink="http://www.w3.org/1999/xlink" x="0" y="0" width="79" height="42" viewBox="0, 0, 79, 42">
  <g id="Layer_1">
    <g>
      <path d="M16,12.5 C16,12.2 15.9,11.9 15.6,11.7 L14.5,10.6 C14,10.2 13.3,10.2 12.8,10.6 L2.9,20.5 C2.7,20.7 2.5,21 2.5,21.3 C2.5,21.6 2.6,21.9 2.9,22.1 L12.8,32 C13,32.2 13.3,32.4 13.6,32.4 C13.9,32.4 14.2,32.3 14.4,32 L15.5,30.9 C15.7,30.7 15.9,30.4 15.9,30.1 C15.9,29.8 15.8,29.5 15.5,29.3 L7.5,21.3 L15.5,13.3 C15.9,13.1 16,12.8 16,12.5 z" fill="#FFFFFF"/>
      <path d="M76.7,20.5 L66.8,10.6 C66.4,10.2 65.6,10.2 65.1,10.6 L64,11.7 C63.8,11.9 63.6,12.2 63.6,12.5 C63.6,12.8 63.7,13.1 64,13.3 L72,21.3 L64,29.3 C63.8,29.5 63.6,29.8 63.6,30.1 C63.6,30.4 63.7,30.7 64,30.9 L65.1,32 C65.3,32.2 65.6,32.4 65.9,32.4 C66.2,32.4 66.5,32.3 66.7,32 L76.6,22.1 C76.8,21.9 77,21.6 77,21.3 C77,21 76.9,20.7 76.7,20.5 z" fill="#FFFFFF"/>
      <path d="M38.7,20.5 C34.8,13.1 39.8,2.3 39.8,2.3 C39.8,2.3 33.8,6.7 32.4,13.1 C32.3,13.5 32.2,13.9 32.1,14.2 C33.9,16 36,18.8 36.9,22.2 C37.6,21.5 38.2,20.9 38.7,20.5 z" fill="#33896D"/>
      <path d="M38.7,20.5 C39.3,20 39.6,19.7 39.6,19.7 C39.6,19.7 41,20.7 42.7,22.5 C43.5,19 45.7,16 47.5,14.2 C46.6,7.2 39.8,2.3 39.8,2.3 C39.8,2.3 34.8,13.1 38.7,20.5 z" fill="#85CBA1"/>
      <path d="M29.5,11.9 C29.5,11.9 23.5,16.3 22.1,22.7 C21.8,23.5 21.6,24.4 21.6,25.3 C21.6,29.6 25.1,33.1 29.4,33.1 C29.8,33.1 30.2,33.1 30.6,33 C23,26 29.5,11.9 29.5,11.9 z" fill="#BDCC32"/>
      <path d="M36.9,22.2 C36,18.8 33.9,16 32.1,14.2 C30.7,12.7 29.5,11.9 29.5,11.9 C29.5,11.9 23,26 30.7,33 C31.1,32.9 31.5,32.8 31.8,32.7 C31.8,31.9 32,31.1 32.2,30.4 C33,27 35.1,24.1 36.9,22.2 z" fill="#E8E314"/>
      <path d="M50.1,11.9 C50.1,11.9 48.9,12.7 47.5,14.2 C45.7,16.1 43.5,19 42.7,22.5 C44.8,24.8 47.2,28.3 47.4,32.6 C48.2,32.9 49.1,33.1 50.1,33.1 C50.5,33.1 50.9,33.1 51.3,33 C43.6,26 50.1,11.9 50.1,11.9 z" fill="#E51B46"/>
      <path d="M50.1,11.9 C50.1,11.9 43.6,26 51.3,33 C55.1,32.4 57.9,29.2 57.9,25.3 C57.9,17.5 50.1,11.9 50.1,11.9 z" fill="#F05B8D"/>
      <path d="M39.6,19.7 C39.6,19.7 39.2,20 38.7,20.5 C38.2,20.9 37.6,21.5 36.9,22.2 C35.1,24.1 33,27 32.2,30.5 C31.9,31.2 31.8,32 31.8,32.8 C31.8,32.9 31.8,33 31.8,33.2 C31.8,37.5 35.3,41 39.6,41 C40,41 40.4,41 40.8,40.9 C33.1,33.8 39.6,19.7 39.6,19.7 z" fill="#08A2D8"/>
      <path d="M39.6,19.7 C39.6,19.7 33.1,33.8 40.8,40.8 C44.6,40.2 47.4,37 47.4,33.1 C47.4,32.9 47.4,32.8 47.4,32.6 C47.2,28.4 44.8,24.8 42.7,22.5 C41.1,20.8 39.6,19.7 39.6,19.7 z" fill="#43C7F4"/>
    </g>
  </g>
</svg>
