<?xml version="1.0" encoding="UTF-8"?>
<!DOCTYPE svg PUBLIC "-//W3C//DTD SVG 1.1//EN" "http://www.w3.org/Graphics/SVG/1.1/DTD/svg11.dtd">
<svg version="1.1" xmlns="http://www.w3.org/2000/svg" xmlns:xlink="http://www.w3.org/1999/xlink" x="0" y="0" width="41.101" height="28.63" viewBox="0, 0, 411.008, 286.304">
  <g id="Layer_1" transform="translate(-406.757, -251.516)">
    <g>
      <path d="M499.386,335.793 L439.179,396 L499.386,456.208 C500.305,457.127 500.917,458.504 500.917,459.73 C500.917,460.956 500.305,462.333 499.386,463.252 L491.724,470.914 C490.805,471.833 489.428,472.445 488.202,472.445 C486.975,472.445 485.598,471.833 484.679,470.914 L413.287,399.523 C412.368,398.604 411.757,397.227 411.757,396 C411.757,394.774 412.368,393.397 413.287,392.478 L484.679,321.086 C485.598,320.167 486.975,319.555 488.202,319.555 C489.428,319.555 490.805,320.167 491.724,321.086 L499.386,328.748 C500.305,329.667 500.917,330.891 500.917,332.271 C500.917,333.497 500.305,334.874 499.386,335.793" fill="#FFFFFF"/>
      <path d="M499.386,335.793 L439.179,396 L499.386,456.208 C500.305,457.127 500.917,458.504 500.917,459.73 C500.917,460.956 500.305,462.333 499.386,463.252 L491.724,470.914 C490.805,471.833 489.428,472.445 488.202,472.445 C486.975,472.445 485.598,471.833 484.679,470.914 L413.287,399.523 C412.368,398.604 411.757,397.227 411.757,396 C411.757,394.774 412.368,393.397 413.287,392.478 L484.679,321.086 C485.598,320.167 486.975,319.555 488.202,319.555 C489.428,319.555 490.805,320.167 491.724,321.086 L499.386,328.748 C500.305,329.667 500.917,330.891 500.917,332.271 C500.917,333.497 500.305,334.874 499.386,335.793 z" fill-opacity="0" stroke="#FFFFFF" stroke-width="3"/>
      <path d="M723.605,332.27 C723.605,330.89 724.217,329.667 725.136,328.748 L732.798,321.086 C733.717,320.167 735.094,319.555 736.32,319.555 C737.546,319.555 738.924,320.167 739.843,321.086 L811.234,392.477 C812.153,393.396 812.765,394.773 812.765,396 C812.765,397.226 812.153,398.603 811.234,399.522 L739.843,470.914 C738.924,471.833 737.546,472.445 736.32,472.445 C735.094,472.445 733.717,471.833 732.798,470.914 L725.136,463.252 C724.217,462.333 723.605,460.956 723.605,459.729 C723.605,458.503 724.217,457.126 725.136,456.207 L785.343,396 L725.136,335.792 C724.217,334.873 723.605,333.496 723.605,332.27" fill="#FFFFFF"/>
      <path d="M723.605,332.27 C723.605,330.89 724.217,329.667 725.136,328.748 L732.798,321.086 C733.717,320.167 735.094,319.555 736.32,319.555 C737.546,319.555 738.924,320.167 739.843,321.086 L811.234,392.477 C812.153,393.396 812.765,394.773 812.765,396 C812.765,397.226 812.153,398.603 811.234,399.522 L739.843,470.914 C738.924,471.833 737.546,472.445 736.32,472.445 C735.094,472.445 733.717,471.833 732.798,470.914 L725.136,463.252 C724.217,462.333 723.605,460.956 723.605,459.729 C723.605,458.503 724.217,457.126 725.136,456.207 L785.343,396 L725.136,335.792 C724.217,334.873 723.605,333.496 723.605,332.27 z" fill-opacity="0" stroke="#FFFFFF" stroke-width="3"/>
      <path d="M620.501,404.116 C617.732,404.544 614.891,404.757 612,404.757 C580.826,404.757 555.558,379.489 555.558,348.315 C555.558,341.647 556.718,335.243 558.846,329.297 C568.772,283.025 612.153,251.516 612.153,251.516 C612.153,251.516 565.097,353.019 620.501,404.116" fill="#39DCAD"/>
      <path d="M668.442,348.315 C668.442,376.597 647.632,400.023 620.501,404.116 C565.097,353.019 612.152,251.516 612.152,251.516 C612.152,251.516 668.442,291.873 668.442,348.315" fill="#69F0AE"/>
      <path d="M547.326,480.737 C544.557,481.165 541.716,481.378 538.825,481.378 C507.651,481.378 482.383,456.11 482.383,424.936 C482.383,418.268 483.543,411.864 485.671,405.918 C495.597,359.646 538.978,328.137 538.978,328.137 C538.978,328.137 491.922,429.64 547.326,480.737" fill="#BECC02"/>
      <path d="M594.268,424.936 C594.268,453.218 573.458,476.644 546.327,480.737 C490.923,429.64 537.978,328.137 537.978,328.137 C537.978,328.137 594.268,368.494 594.268,424.936" fill="#E8E400"/>
      <path d="M694.676,480.737 C691.907,481.165 689.066,481.378 686.175,481.378 C655.001,481.378 629.733,456.11 629.733,424.936 C629.733,418.268 630.893,411.864 633.021,405.918 C642.947,359.646 686.328,328.137 686.328,328.137 C686.328,328.137 639.272,429.64 694.676,480.737" fill="#E50A43"/>
      <path d="M742.617,424.936 C742.617,453.218 721.807,476.644 694.676,480.737 C639.272,429.64 686.327,328.137 686.327,328.137 C686.327,328.137 742.617,368.494 742.617,424.936" fill="#FF5A8D"/>
      <path d="M619.258,537.179 C616.489,537.607 613.648,537.82 610.757,537.82 C579.583,537.82 554.315,512.552 554.315,481.378 C554.315,474.71 555.475,468.306 557.603,462.36 C567.529,416.088 610.91,384.579 610.91,384.579 C610.91,384.579 563.854,486.082 619.258,537.179" fill="#05A2D8"/>
      <path d="M667.199,481.378 C667.199,509.66 646.389,533.086 619.258,537.179 C563.854,486.082 610.909,384.579 610.909,384.579 C610.909,384.579 667.199,424.936 667.199,481.378" fill="#22D0FF"/>
    </g>
  </g>
</svg>
