<?xml version="1.0" encoding="UTF-8"?>
<!DOCTYPE svg PUBLIC "-//W3C//DTD SVG 1.1//EN" "http://www.w3.org/Graphics/SVG/1.1/DTD/svg11.dtd">
<svg version="1.1" xmlns="http://www.w3.org/2000/svg" xmlns:xlink="http://www.w3.org/1999/xlink" x="0" y="0" width="50" height="50" viewBox="0, 0, 50, 50">
  <g id="Layer_1">
    <path d="M42.898,28.854 Q42.898,28.975 42.874,29.023 Q41.332,35.479 36.418,39.489 Q31.504,43.5 24.904,43.5 Q21.387,43.5 18.099,42.175 Q14.811,40.85 12.233,38.393 L9.126,41.501 Q8.668,41.958 8.042,41.958 Q7.415,41.958 6.958,41.501 Q6.5,41.043 6.5,40.417 L6.5,29.625 Q6.5,28.999 6.958,28.541 Q7.415,28.083 8.042,28.083 L18.833,28.083 Q19.46,28.083 19.917,28.541 Q20.375,28.999 20.375,29.625 Q20.375,30.251 19.917,30.709 L16.617,34.009 Q18.327,35.599 20.495,36.466 Q22.663,37.333 25,37.333 Q28.228,37.333 31.022,35.768 Q33.816,34.202 35.503,31.456 Q35.768,31.046 36.779,28.637 Q36.972,28.083 37.502,28.083 L42.127,28.083 Q42.44,28.083 42.669,28.312 Q42.898,28.541 42.898,28.854 z M43.5,9.583 L43.5,20.375 Q43.5,21.001 43.042,21.459 Q42.585,21.917 41.958,21.917 L31.167,21.917 Q30.54,21.917 30.083,21.459 Q29.625,21.001 29.625,20.375 Q29.625,19.749 30.083,19.291 L33.407,15.967 Q29.842,12.667 25,12.667 Q21.772,12.667 18.978,14.232 Q16.184,15.798 14.497,18.544 Q14.232,18.954 13.221,21.363 Q13.028,21.917 12.498,21.917 L7.704,21.917 Q7.391,21.917 7.162,21.688 Q6.934,21.459 6.934,21.146 L6.934,20.977 Q8.499,14.521 13.437,10.511 Q18.376,6.5 25,6.5 Q28.517,6.5 31.841,7.837 Q35.165,9.174 37.743,11.607 L40.874,8.499 Q41.332,8.042 41.958,8.042 Q42.585,8.042 43.042,8.499 Q43.5,8.957 43.5,9.583 z" fill="#FFFFFF"/>
  </g>
</svg>
